# xmcd CD database file
#
# Track frame offsets:
#	187
#	20222
#	41397
#	66027
#	85382
#	110235
#	133582
#	154100
#	177312
#	205930
#
# Disc length: 3045 seconds
#
# Revision: 0
# Processed by: cddbd v1.5.1PL0 Copyright (c) Steve Scherf et al.
# Submitted via: CDex 1.51
#
DISCID=8c0be30a
DTITLE=Mitsuko - Propose
DYEAR=1993
DGENRE=Pop
TTITLE0=彼のミステリー　私のジェラシー
TTITLE1=止まらない I Love You
TTITLE2=あなたの笑顔 -Happy Wedding To You-
TTITLE3=恋した夏の日
TTITLE4=人生に花束を
TTITLE5=冷静に愛せない
TTITLE6=私からプロポーズ
TTITLE7=エスパーは愛のテレパシー
TTITLE8=ムーライト　ラブソング
TTITLE9=どんな私もあなたの瞳にきれいには映らない
EXTD=YEAR: 1993
EXTT0=
EXTT1=
EXTT2=
EXTT3=
EXTT4=
EXTT5=
EXTT6=
EXTT7=
EXTT8=
EXTT9=
PLAYORDER=
